HIERARCHY
ROOT Hips
{
    OFFSET 0.000000 0.000000 0.000000
    CHANNELS 6 Xposition Yposition Zposition Zrotation Xrotation Yrotation
    JOINT Spine
    {
        OFFSET -0.000000 14.517291 0.000000
        CHANNELS 3 Zrotation Xrotation Yrotation
        JOINT Spine1
        {
            OFFSET -0.000000 37.558300 0.000000
            CHANNELS 3 Zrotation Xrotation Yrotation
            JOINT Neck
            {
                OFFSET -0.000000 37.404057 3.400369
                CHANNELS 3 Zrotation Xrotation Yrotation
                JOINT Head
                {
                    OFFSET -0.000000 24.785618 -3.540803
                    CHANNELS 3 Zrotation Xrotation Yrotation
                    End Site
                    {
                        OFFSET -0.000000 35.408028 0.000000
                    }
                }
            }
            JOINT LeftShoulder
            {
                OFFSET 6.992933 33.973492 -0.192664
                CHANNELS 3 Zrotation Xrotation Yrotation
                JOINT LeftArm
                {
                    OFFSET 21.527611 0.000000 0.000000
                    CHANNELS 3 Zrotation Xrotation Yrotation
                    JOINT LeftForeArm
                    {
                        OFFSET 56.353916 0.000000 0.000000
                        CHANNELS 3 Zrotation Xrotation Yrotation
                        JOINT LeftHand
                        {
                            OFFSET 47.774071 0.000000 0.000000
                            CHANNELS 3 Zrotation Xrotation Yrotation
                            End Site
                            {
                                OFFSET 26.556021 0.000000 0.000000
                            }
                        }
                    }
                }
            }
            JOINT RightShoulder
            {
                OFFSET -7.065357 33.973492 -0.192664
                CHANNELS 3 Zrotation Xrotation Yrotation
                JOINT RightArm
                {
                    OFFSET -21.527611 0.000000 0.000000
                    CHANNELS 3 Zrotation Xrotation Yrotation
                    JOINT RightForeArm
                    {
                        OFFSET -56.353916 0.000000 0.000000
                        CHANNELS 3 Zrotation Xrotation Yrotation
                        JOINT RightHand
                        {
                            OFFSET -47.774071 0.000000 0.000000
                            CHANNELS 3 Zrotation Xrotation Yrotation
                            End Site
                            {
                                OFFSET -26.556021 0.000000 0.000000
                            }
                        }
                    }
                }
            }
        }
    }
    JOINT LeftUpLeg
    {
        OFFSET 17.704014 0.000000 0.000000
        CHANNELS 3 Zrotation Xrotation Yrotation
        JOINT LeftLeg
        {
            OFFSET -0.000000 -81.181816 0.000000
            CHANNELS 3 Zrotation Xrotation Yrotation
            JOINT LeftFoot
            {
                OFFSET -0.000000 -62.821102 0.000000
                CHANNELS 3 Zrotation Xrotation Yrotation
                JOINT LeftToeBase
                {
                    OFFSET -0.000000 -11.507608 26.556021
                    CHANNELS 3 Zrotation Xrotation Yrotation
                    End Site
                    {
                        OFFSET -0.000000 0.000000 7.081605
                    }
                }
            }
        }
    }
    JOINT RightUpLeg
    {
        OFFSET -17.704014 0.000000 0.000000
        CHANNELS 3 Zrotation Xrotation Yrotation
        JOINT RightLeg
        {
            OFFSET -0.000000 -81.181816 0.000000
            CHANNELS 3 Zrotation Xrotation Yrotation
            JOINT RightFoot
            {
                OFFSET -0.000000 -62.821102 0.000000
                CHANNELS 3 Zrotation Xrotation Yrotation
                JOINT RightToeBase
                {
                    OFFSET -0.000000 -11.507608 26.556021
                    CHANNELS 3 Zrotation Xrotation Yrotation
                    End Site
                    {
                        OFFSET -0.000000 0.000000 7.081605
                    }
                }
            }
        }
    }
}
MOTION
Frames:    5
Frame Time:    0.008333
-3.097363    156.017853    -25.566921    -0.966203    -3.929805    -31.844223    4.709083    -0.081508    2.524009    -5.125682    2.623122    0.956186    17.669405    1.985843    12.477787    -9.048205    2.895466    9.605426    0.667478    9.648951    -11.613514    -38.384655    6.536698    -40.345947    32.550976    -42.616932    -45.252789    -20.678501    -26.722485    -29.123503    -13.114262    -2.809654    -0.456132    18.352343    -17.203970    52.053421    46.234550    -0.191466    77.662109    31.464615    -28.888132    37.653984    16.205591    -16.148207    4.908426    -12.686357    19.880499    -0.212184    -5.110516    -0.031857    33.040375    0.000000    0.000000    0.000000    -11.715621    1.297086    -9.122401    6.505965    32.179600    -1.099037    3.237847    -25.015617    -14.691649    0.000000    0.000000    0.000000    
-3.103515    156.014816    -25.562412    -0.960963    -3.928370    -31.844288    4.687875    -0.069015    2.524319    -5.114633    2.600654    0.955210    17.670137    2.001910    12.479149    -9.043743    2.858717    9.606943    0.672072    9.637896    -11.634248    -38.400078    6.507458    -40.324356    32.517502    -42.598122    -45.278393    -20.660545    -26.710373    -29.119749    -13.112962    -2.820122    -0.459495    18.304989    -17.192265    52.013420    46.243134    -0.203327    77.636948    31.413898    -28.912846    37.627663    16.208668    -16.154264    4.891856    -12.705999    19.884731    -0.197721    -5.096983    -0.036213    33.053036    0.000000    0.000000    0.000000    -11.718036    1.292190    -9.119077    6.470222    32.196308    -1.041244    3.304217    -25.030363    -14.668538    0.000000    0.000000    0.000000    
-3.108530    156.009567    -25.556595    -0.962737    -3.933980    -31.842325    4.676315    -0.046413    2.524888    -5.119922    2.583934    0.955035    17.691301    2.025926    12.486900    -9.064261    2.803055    9.609257    0.692678    9.637442    -11.644266    -38.405975    6.481965    -40.329758    32.485565    -42.593529    -45.304050    -20.644451    -26.718023    -29.095585    -13.105812    -2.829596    -0.473650    18.269516    -17.192482    51.992241    46.267605    -0.217318    77.599533    31.358131    -28.941116    37.624901    16.211979    -16.154310    4.861760    -12.725204    19.894787    -0.177925    -5.083672    -0.040649    33.051750    0.000000    0.000000    0.000000    -11.717513    1.300588    -9.120972    6.460527    32.200489    -1.044164    3.309191    -25.042662    -14.653886    0.000000    0.000000    0.000000    
-3.114234    156.002670    -25.548962    -0.965502    -3.938685    -31.840506    4.666032    -0.032398    2.522378    -5.122123    2.577195    0.954157    17.711342    2.046647    12.495899    -9.084254    2.755548    9.613188    0.708423    9.641561    -11.649192    -38.408833    6.453243    -40.345650    32.482033    -42.571510    -45.293228    -20.623541    -26.702614    -29.087015    -13.107666    -2.842849    -0.472955    18.232887    -17.174149    51.946102    46.251926    -0.239993    77.595581    31.333635    -28.958225    37.600498    16.215103    -16.154604    4.846891    -12.734907    19.912390    -0.185215    -5.075122    -0.061037    33.066135    0.000000    0.000000    0.000000    -11.722356    1.309854    -9.122649    6.469440    32.207054    -1.017913    3.287418    -25.058336    -14.673202    0.000000    0.000000    0.000000    
-3.117351    155.994690    -25.546276    -0.966120    -3.942365    -31.836426    4.650663    -0.013676    2.520928    -5.110522    2.565591    0.953145    17.707184    2.068934    12.505667    -9.089463    2.703930    9.622823    0.706112    9.628755    -11.673370    -38.397438    6.432013    -40.327103    32.453896    -42.564137    -45.307537    -20.584581    -26.714182    -29.063593    -13.124023    -2.843423    -0.481162    18.205814    -17.149227    51.905293    46.209671    -0.275476    77.618362    31.314510    -28.977926    37.576870    16.218815    -16.154661    4.816099    -12.753520    19.916832    -0.166589    -5.067413    -0.077730    33.058807    0.000000    0.000000    0.000000    -11.725360    1.317340    -9.125567    6.471858    32.208664    -0.996473    3.277559    -25.075356    -14.700099    0.000000    0.000000    0.000000    
